<svg width="298" height="39" viewBox="0 0 298 39" fill="none" xmlns="http://www.w3.org/2000/svg">
<path d="M0.32 30V2H5.68L17.6 21.76H14.76L26.48 2H31.8L31.88 30H25.8L25.76 11.32H26.88L17.52 27.04H14.6L5.04 11.32H6.4V30H0.32ZM47.1631 30.32C45.3765 30.32 43.7765 29.9733 42.3631 29.28C40.9765 28.5867 39.8965 27.5333 39.1231 26.12C38.3498 24.68 37.9631 22.8533 37.9631 20.64V8.48H44.2031V19.72C44.2031 21.5067 44.5765 22.8267 45.3231 23.68C46.0965 24.5067 47.1765 24.92 48.5631 24.92C49.5231 24.92 50.3765 24.72 51.1231 24.32C51.8698 23.8933 52.4565 23.2533 52.8831 22.4C53.3098 21.52 53.5231 20.4267 53.5231 19.12V8.48H59.7631V30H53.8431V24.08L54.9231 25.8C54.2031 27.2933 53.1365 28.4267 51.7231 29.2C50.3365 29.9467 48.8165 30.32 47.1631 30.32ZM74.7841 30.32C72.7574 30.32 70.9307 29.8667 69.3041 28.96C67.6774 28.0267 66.3841 26.7333 65.4241 25.08C64.4907 23.4267 64.0241 21.48 64.0241 19.24C64.0241 16.9733 64.4907 15.0133 65.4241 13.36C66.3841 11.7067 67.6774 10.4267 69.3041 9.52C70.9307 8.61333 72.7574 8.16 74.7841 8.16C76.5974 8.16 78.1841 8.56 79.5441 9.36C80.9041 10.16 81.9574 11.3733 82.7041 13C83.4507 14.6267 83.8241 16.7067 83.8241 19.24C83.8241 21.7467 83.4641 23.8267 82.7441 25.48C82.0241 27.1067 80.9841 28.32 79.6241 29.12C78.2907 29.92 76.6774 30.32 74.7841 30.32ZM75.8641 25.2C76.8774 25.2 77.7974 24.96 78.6241 24.48C79.4507 24 80.1041 23.32 80.5841 22.44C81.0907 21.5333 81.3441 20.4667 81.3441 19.24C81.3441 17.9867 81.0907 16.92 80.5841 16.04C80.1041 15.16 79.4507 14.48 78.6241 14C77.7974 13.52 76.8774 13.28 75.8641 13.28C74.8241 13.28 73.8907 13.52 73.0641 14C72.2374 14.48 71.5707 15.16 71.0641 16.04C70.5841 16.92 70.3441 17.9867 70.3441 19.24C70.3441 20.4667 70.5841 21.5333 71.0641 22.44C71.5707 23.32 72.2374 24 73.0641 24.48C73.8907 24.96 74.8241 25.2 75.8641 25.2ZM81.5041 30V25.6L81.6241 19.2L81.2241 12.84V0.319998H87.4641V30H81.5041ZM103.919 30.32C101.466 30.32 99.306 29.84 97.4394 28.88C95.5994 27.92 94.1727 26.6133 93.1594 24.96C92.146 23.28 91.6394 21.3733 91.6394 19.24C91.6394 17.08 92.1327 15.1733 93.1194 13.52C94.1327 11.84 95.506 10.5333 97.2394 9.6C98.9727 8.64 100.933 8.16 103.119 8.16C105.226 8.16 107.119 8.61333 108.799 9.52C110.506 10.4 111.853 11.68 112.839 13.36C113.826 15.0133 114.319 17 114.319 19.32C114.319 19.56 114.306 19.84 114.279 20.16C114.253 20.4533 114.226 20.7333 114.199 21H96.7194V17.36H110.919L108.519 18.44C108.519 17.32 108.293 16.3467 107.839 15.52C107.386 14.6933 106.759 14.0533 105.959 13.6C105.159 13.12 104.226 12.88 103.159 12.88C102.093 12.88 101.146 13.12 100.319 13.6C99.5194 14.0533 98.8927 14.7067 98.4394 15.56C97.986 16.3867 97.7594 17.3733 97.7594 18.52V19.48C97.7594 20.6533 98.0127 21.6933 98.5194 22.6C99.0527 23.48 99.786 24.16 100.719 24.64C101.679 25.0933 102.799 25.32 104.079 25.32C105.226 25.32 106.226 25.1467 107.079 24.8C107.959 24.4533 108.759 23.9333 109.479 23.24L112.799 26.84C111.813 27.96 110.573 28.8267 109.079 29.44C107.586 30.0267 105.866 30.32 103.919 30.32ZM120.803 38.08C119.683 38.08 118.576 37.9067 117.483 37.56C116.39 37.2133 115.496 36.7333 114.803 36.12L117.083 31.68C117.563 32.1067 118.11 32.44 118.723 32.68C119.363 32.92 119.99 33.04 120.603 33.04C121.483 33.04 122.176 32.8267 122.683 32.4C123.216 32 123.696 31.32 124.123 30.36L125.243 27.72L125.723 27.04L133.443 8.48H139.443L129.723 31.32C129.03 33.0533 128.23 34.4133 127.323 35.4C126.443 36.3867 125.456 37.08 124.363 37.48C123.296 37.88 122.11 38.08 120.803 38.08ZM124.483 30.84L114.883 8.48H121.323L128.763 26.48L124.483 30.84Z" fill="black"/>
<path d="M140.469 1.68C141.163 1.70667 142.069 1.73333 143.189 1.76C144.309 1.78667 145.429 1.8 146.549 1.8C147.829 1.8 149.069 1.78667 150.269 1.76C151.469 1.73333 152.323 1.72 152.829 1.72C156.136 1.72 158.603 2.30667 160.229 3.48C161.883 4.65333 162.709 6.16 162.709 8C162.709 8.93333 162.429 9.88 161.869 10.84C161.309 11.8 160.443 12.6533 159.269 13.4C158.096 14.1467 156.576 14.6933 154.709 15.04V15.12C157.216 15.3067 159.203 15.76 160.669 16.48C162.136 17.2 163.189 18.0667 163.829 19.08C164.469 20.0933 164.789 21.1467 164.789 22.24C164.789 23.92 164.349 25.3333 163.469 26.48C162.589 27.6267 161.323 28.5067 159.669 29.12C158.016 29.7067 156.043 30 153.749 30C153.109 30 152.189 29.9867 150.989 29.96C149.789 29.9067 148.336 29.88 146.629 29.88C145.456 29.88 144.309 29.8933 143.189 29.92C142.069 29.92 141.163 29.9467 140.469 30V29.2C141.323 29.1467 141.963 29.04 142.389 28.88C142.816 28.72 143.096 28.4 143.229 27.92C143.389 27.44 143.469 26.72 143.469 25.76V5.92C143.469 4.93333 143.389 4.21333 143.229 3.76C143.096 3.28 142.803 2.96 142.349 2.8C141.923 2.61333 141.296 2.50667 140.469 2.48V1.68ZM152.309 2.48C151.269 2.48 150.589 2.70667 150.269 3.16C149.976 3.61333 149.829 4.53333 149.829 5.92V25.76C149.829 26.6933 149.896 27.4 150.029 27.88C150.189 28.36 150.456 28.68 150.829 28.84C151.229 29 151.816 29.08 152.589 29.08C154.509 29.08 155.909 28.48 156.789 27.28C157.696 26.0533 158.149 24.32 158.149 22.08C158.149 20.0267 157.629 18.44 156.589 17.32C155.576 16.2 153.883 15.64 151.509 15.64H148.109C148.109 15.64 148.109 15.5333 148.109 15.32C148.109 15.08 148.109 14.96 148.109 14.96H151.549C152.803 14.96 153.763 14.6667 154.429 14.08C155.096 13.4667 155.563 12.6667 155.829 11.68C156.096 10.6667 156.229 9.58667 156.229 8.44C156.229 6.46667 155.923 4.98667 155.309 4C154.696 2.98667 153.696 2.48 152.309 2.48ZM167.227 1.68C167.894 1.70667 168.787 1.73333 169.907 1.76C171.054 1.78667 172.187 1.8 173.307 1.8C174.587 1.8 175.827 1.78667 177.027 1.76C178.227 1.73333 179.081 1.72 179.587 1.72C182.067 1.72 184.121 2 185.747 2.56C187.401 3.09333 188.627 3.88 189.427 4.92C190.254 5.96 190.667 7.21333 190.667 8.68C190.667 9.58667 190.481 10.5067 190.107 11.44C189.734 12.3467 189.094 13.2 188.187 14C187.307 14.7733 186.094 15.4 184.547 15.88C183.001 16.3333 181.054 16.56 178.707 16.56H174.867V15.76H178.307C179.881 15.76 181.067 15.4667 181.867 14.88C182.694 14.2667 183.254 13.4667 183.547 12.48C183.867 11.4667 184.027 10.3467 184.027 9.12C184.027 7.01333 183.654 5.38667 182.907 4.24C182.161 3.06667 180.881 2.48 179.067 2.48C178.027 2.48 177.347 2.70667 177.027 3.16C176.734 3.61333 176.587 4.53333 176.587 5.92V25.76C176.587 26.72 176.654 27.44 176.787 27.92C176.947 28.4 177.241 28.72 177.667 28.88C178.094 29.04 178.734 29.1467 179.587 29.2V30C178.867 29.9467 177.961 29.92 176.867 29.92C175.774 29.8933 174.667 29.88 173.547 29.88C172.267 29.88 171.054 29.8933 169.907 29.92C168.787 29.92 167.894 29.9467 167.227 30V29.2C168.081 29.1467 168.721 29.04 169.147 28.88C169.574 28.72 169.854 28.4 169.987 27.92C170.147 27.44 170.227 26.72 170.227 25.76V5.92C170.227 4.93333 170.147 4.21333 169.987 3.76C169.854 3.28 169.561 2.96 169.107 2.8C168.681 2.61333 168.054 2.50667 167.227 2.48V1.68ZM174.787 15.88C175.934 15.9067 176.921 15.96 177.747 16.04C178.601 16.12 179.347 16.2 179.987 16.28C180.627 16.3333 181.201 16.3733 181.707 16.4C184.134 16.6133 185.921 17.1333 187.067 17.96C188.241 18.7867 189.001 20.0267 189.347 21.68L190.267 25.8C190.507 26.8667 190.761 27.6133 191.027 28.04C191.294 28.4667 191.681 28.68 192.187 28.68C192.534 28.6533 192.814 28.5733 193.027 28.44C193.267 28.28 193.521 28.0533 193.787 27.76L194.347 28.24C193.627 29.0667 192.854 29.6533 192.027 30C191.201 30.3733 190.201 30.56 189.027 30.56C187.587 30.56 186.401 30.2533 185.467 29.64C184.534 29.0267 183.921 27.8933 183.627 26.24L182.907 22.24C182.721 21.12 182.494 20.1467 182.227 19.32C181.961 18.4667 181.587 17.8 181.107 17.32C180.654 16.8133 180.014 16.56 179.187 16.56H174.867L174.787 15.88ZM216.323 1.68C216.216 2.85333 216.136 3.98667 216.083 5.08C216.056 6.17333 216.043 7.01333 216.043 7.6C216.043 8.13333 216.056 8.64 216.083 9.12C216.109 9.6 216.136 10 216.162 10.32H215.243C214.976 8.37333 214.563 6.84 214.003 5.72C213.443 4.57333 212.709 3.77333 211.803 3.32C210.923 2.84 209.883 2.6 208.683 2.6H207.043C206.269 2.6 205.683 2.66666 205.283 2.8C204.883 2.93333 204.616 3.2 204.483 3.6C204.349 4 204.283 4.61333 204.283 5.44V26.24C204.283 27.0667 204.349 27.68 204.483 28.08C204.616 28.48 204.883 28.7467 205.283 28.88C205.683 29.0133 206.269 29.08 207.043 29.08H209.003C210.203 29.08 211.256 28.8267 212.163 28.32C213.096 27.7867 213.883 26.8933 214.523 25.64C215.189 24.3867 215.696 22.6933 216.043 20.56H216.963C216.883 21.4133 216.843 22.5333 216.843 23.92C216.843 24.5333 216.856 25.4 216.883 26.52C216.909 27.64 216.989 28.8 217.123 30C215.763 29.9467 214.229 29.92 212.523 29.92C210.816 29.8933 209.296 29.88 207.963 29.88C207.296 29.88 206.443 29.88 205.403 29.88C204.363 29.88 203.243 29.8933 202.043 29.92C200.843 29.92 199.629 29.9333 198.403 29.96C197.176 29.96 196.016 29.9733 194.923 30V29.2C195.776 29.1467 196.416 29.04 196.843 28.88C197.269 28.72 197.549 28.4 197.683 27.92C197.843 27.44 197.923 26.72 197.923 25.76V5.92C197.923 4.93333 197.843 4.21333 197.683 3.76C197.549 3.28 197.256 2.96 196.803 2.8C196.376 2.61333 195.749 2.50667 194.923 2.48V1.68C196.016 1.70667 197.176 1.73333 198.403 1.76C199.629 1.76 200.843 1.77333 202.043 1.8C203.243 1.8 204.363 1.8 205.403 1.8C206.443 1.8 207.296 1.8 207.963 1.8C209.189 1.8 210.576 1.8 212.123 1.8C213.696 1.77333 215.096 1.73333 216.323 1.68ZM210.083 15.36C210.083 15.36 210.083 15.4933 210.083 15.76C210.083 16.0267 210.083 16.16 210.083 16.16H203.083C203.083 16.16 203.083 16.0267 203.083 15.76C203.083 15.4933 203.083 15.36 203.083 15.36H210.083ZM211.243 10.08C211.136 11.6 211.083 12.76 211.083 13.56C211.109 14.36 211.123 15.0933 211.123 15.76C211.123 16.4267 211.136 17.16 211.163 17.96C211.189 18.76 211.256 19.92 211.363 21.44H210.443C210.309 20.5067 210.056 19.64 209.683 18.84C209.336 18.04 208.829 17.4 208.163 16.92C207.496 16.4133 206.629 16.16 205.563 16.16V15.36C206.363 15.36 207.043 15.2 207.603 14.88C208.163 14.5333 208.616 14.0933 208.963 13.56C209.336 13 209.629 12.4133 209.843 11.8C210.056 11.1867 210.216 10.6133 210.323 10.08H211.243ZM233.634 1.6L243.354 26.64C243.727 27.6 244.141 28.2667 244.594 28.64C245.074 28.9867 245.501 29.1733 245.874 29.2V30C245.074 29.9467 244.127 29.92 243.034 29.92C241.967 29.8933 240.887 29.88 239.794 29.88C238.567 29.88 237.407 29.8933 236.314 29.92C235.221 29.92 234.354 29.9467 233.714 30V29.2C235.074 29.1467 235.927 28.92 236.274 28.52C236.647 28.0933 236.567 27.2 236.034 25.84L229.234 7.24L229.954 6.2L223.874 22.04C223.287 23.5067 222.927 24.7067 222.794 25.64C222.687 26.5733 222.754 27.2933 222.994 27.8C223.261 28.3067 223.674 28.6667 224.234 28.88C224.821 29.0667 225.514 29.1733 226.314 29.2V30C225.434 29.9467 224.594 29.92 223.794 29.92C222.994 29.8933 222.181 29.88 221.354 29.88C220.767 29.88 220.207 29.8933 219.674 29.92C219.167 29.92 218.714 29.9467 218.314 30V29.2C218.874 29.0933 219.447 28.7333 220.034 28.12C220.621 27.5067 221.194 26.4667 221.754 25L230.874 1.6C231.301 1.62666 231.754 1.64 232.234 1.64C232.741 1.64 233.207 1.62666 233.634 1.6ZM236.434 18.48V19.28H224.514L224.914 18.48H236.434ZM258.533 1.68C263.786 1.68 267.693 2.88 270.253 5.28C272.813 7.65333 274.093 11.0667 274.093 15.52C274.093 18.4267 273.466 20.9733 272.213 23.16C270.959 25.32 269.133 27 266.733 28.2C264.359 29.4 261.506 30 258.173 30C257.746 30 257.186 29.9867 256.493 29.96C255.799 29.9333 255.079 29.92 254.333 29.92C253.586 29.8933 252.919 29.88 252.333 29.88C251.159 29.88 249.999 29.8933 248.853 29.92C247.733 29.92 246.839 29.9467 246.173 30V29.2C247.026 29.1467 247.666 29.04 248.093 28.88C248.519 28.72 248.799 28.4 248.933 27.92C249.093 27.44 249.173 26.72 249.173 25.76V5.92C249.173 4.93333 249.093 4.21333 248.933 3.76C248.799 3.28 248.506 2.96 248.053 2.8C247.626 2.61333 246.999 2.50667 246.173 2.48V1.68C246.839 1.70667 247.733 1.74667 248.853 1.8C249.999 1.82666 251.133 1.82666 252.253 1.8C253.213 1.77333 254.293 1.74667 255.493 1.72C256.719 1.69333 257.733 1.68 258.533 1.68ZM258.493 2.4C257.266 2.4 256.466 2.62666 256.093 3.08C255.719 3.53333 255.533 4.45333 255.533 5.84V25.84C255.533 27.2267 255.719 28.1467 256.093 28.6C256.493 29.0533 257.306 29.28 258.533 29.28C260.773 29.28 262.533 28.76 263.813 27.72C265.119 26.6533 266.053 25.1067 266.613 23.08C267.173 21.0533 267.453 18.5867 267.453 15.68C267.453 12.6933 267.146 10.2267 266.533 8.28C265.946 6.30666 264.999 4.84 263.693 3.88C262.386 2.89333 260.653 2.4 258.493 2.4ZM287.227 1.16C288.801 1.16 290.014 1.33333 290.867 1.68C291.721 2 292.454 2.34667 293.067 2.72C293.387 2.90667 293.641 3.05333 293.827 3.16C294.041 3.24 294.241 3.28 294.427 3.28C294.694 3.28 294.881 3.13333 294.987 2.84C295.121 2.54666 295.227 2.10666 295.307 1.52H296.227C296.201 2.02667 296.161 2.64 296.107 3.36C296.081 4.05333 296.054 4.97333 296.027 6.12C296.027 7.26667 296.027 8.77333 296.027 10.64H295.107C295.001 9.25333 294.681 7.90667 294.147 6.6C293.614 5.29333 292.854 4.22667 291.867 3.4C290.907 2.54667 289.721 2.12 288.307 2.12C287.027 2.12 285.974 2.48 285.147 3.2C284.321 3.92 283.907 4.92 283.907 6.2C283.907 7.26667 284.174 8.18667 284.707 8.96C285.241 9.70667 286.014 10.44 287.027 11.16C288.067 11.88 289.321 12.7467 290.787 13.76C292.067 14.5867 293.214 15.4133 294.227 16.24C295.241 17.0667 296.054 18 296.667 19.04C297.281 20.08 297.587 21.32 297.587 22.76C297.587 24.52 297.121 25.9733 296.187 27.12C295.281 28.2667 294.081 29.1333 292.587 29.72C291.094 30.28 289.454 30.56 287.667 30.56C286.014 30.56 284.694 30.4 283.707 30.08C282.721 29.76 281.894 29.4267 281.227 29.08C280.641 28.7067 280.187 28.52 279.867 28.52C279.601 28.52 279.401 28.6667 279.267 28.96C279.161 29.2533 279.067 29.6933 278.987 30.28H278.067C278.121 29.64 278.147 28.8933 278.147 28.04C278.174 27.1867 278.187 26.08 278.187 24.72C278.214 23.3333 278.227 21.5867 278.227 19.48H279.147C279.254 21.24 279.547 22.8933 280.027 24.44C280.534 25.96 281.294 27.1867 282.307 28.12C283.347 29.0533 284.721 29.52 286.427 29.52C287.361 29.52 288.187 29.36 288.907 29.04C289.654 28.6933 290.254 28.1867 290.707 27.52C291.161 26.8533 291.387 26.0267 291.387 25.04C291.387 23.92 291.121 22.9467 290.587 22.12C290.081 21.2933 289.374 20.52 288.467 19.8C287.587 19.08 286.561 18.3467 285.387 17.6C284.134 16.7733 282.961 15.9467 281.867 15.12C280.774 14.2933 279.894 13.3467 279.227 12.28C278.587 11.2133 278.267 9.94667 278.267 8.48C278.267 6.8 278.681 5.42667 279.507 4.36C280.361 3.26667 281.467 2.46667 282.827 1.96C284.214 1.42667 285.681 1.16 287.227 1.16Z" fill="#f48e10"/>
</svg>
